<mxfile host="app.diagrams.net" modified="2024-07-04T03:20:30.660Z" agent="Mozilla/5.0 (Macintosh; Intel Mac OS X 10_15_7) AppleWebKit/537.36 (KHTML, like Gecko) Chrome/126.0.0.0 Safari/537.36 Edg/126.0.0.0" etag="OHGLX4G4UkzrtRCdxp0S" version="24.6.4" type="github">
  <diagram id="C5RBs43oDa-KdzZeNtuy" name="Page-1">
    <mxGraphModel dx="1146" dy="616" grid="1" gridSize="10" guides="1" tooltips="1" connect="1" arrows="1" fold="1" page="1" pageScale="1" pageWidth="827" pageHeight="1169" math="0" shadow="0">
      <root>
        <mxCell id="WIyWlLk6GJQsqaUBKTNV-0" />
        <mxCell id="WIyWlLk6GJQsqaUBKTNV-1" parent="WIyWlLk6GJQsqaUBKTNV-0" />
        <mxCell id="WSzhSvZmGiSPIvQ9xHni-3" value="" style="edgeStyle=orthogonalEdgeStyle;rounded=0;orthogonalLoop=1;jettySize=auto;html=1;" edge="1" parent="WIyWlLk6GJQsqaUBKTNV-1" source="WSzhSvZmGiSPIvQ9xHni-0">
          <mxGeometry relative="1" as="geometry">
            <mxPoint x="420" y="140" as="targetPoint" />
          </mxGeometry>
        </mxCell>
        <mxCell id="WSzhSvZmGiSPIvQ9xHni-0" value="开始" style="rounded=1;whiteSpace=wrap;html=1;" vertex="1" parent="WIyWlLk6GJQsqaUBKTNV-1">
          <mxGeometry x="360" y="50" width="120" height="60" as="geometry" />
        </mxCell>
        <mxCell id="WSzhSvZmGiSPIvQ9xHni-5" value="" style="edgeStyle=orthogonalEdgeStyle;rounded=0;orthogonalLoop=1;jettySize=auto;html=1;" edge="1" parent="WIyWlLk6GJQsqaUBKTNV-1" source="WSzhSvZmGiSPIvQ9xHni-11" target="WSzhSvZmGiSPIvQ9xHni-4">
          <mxGeometry relative="1" as="geometry">
            <mxPoint x="420" y="210" as="sourcePoint" />
          </mxGeometry>
        </mxCell>
        <mxCell id="WSzhSvZmGiSPIvQ9xHni-8" value="" style="edgeStyle=orthogonalEdgeStyle;rounded=0;orthogonalLoop=1;jettySize=auto;html=1;" edge="1" parent="WIyWlLk6GJQsqaUBKTNV-1" source="WSzhSvZmGiSPIvQ9xHni-4" target="WSzhSvZmGiSPIvQ9xHni-7">
          <mxGeometry relative="1" as="geometry" />
        </mxCell>
        <mxCell id="WSzhSvZmGiSPIvQ9xHni-13" value="" style="edgeStyle=orthogonalEdgeStyle;rounded=0;orthogonalLoop=1;jettySize=auto;html=1;" edge="1" parent="WIyWlLk6GJQsqaUBKTNV-1" source="WSzhSvZmGiSPIvQ9xHni-4" target="WSzhSvZmGiSPIvQ9xHni-12">
          <mxGeometry relative="1" as="geometry" />
        </mxCell>
        <mxCell id="WSzhSvZmGiSPIvQ9xHni-14" value="关闭" style="edgeLabel;html=1;align=center;verticalAlign=middle;resizable=0;points=[];" vertex="1" connectable="0" parent="WSzhSvZmGiSPIvQ9xHni-13">
          <mxGeometry x="-0.2" y="-1" relative="1" as="geometry">
            <mxPoint as="offset" />
          </mxGeometry>
        </mxCell>
        <mxCell id="WSzhSvZmGiSPIvQ9xHni-4" value="校验酒店是否开启配置" style="rhombus;whiteSpace=wrap;html=1;rounded=1;" vertex="1" parent="WIyWlLk6GJQsqaUBKTNV-1">
          <mxGeometry x="380" y="250" width="80" height="80" as="geometry" />
        </mxCell>
        <mxCell id="WSzhSvZmGiSPIvQ9xHni-9" value="" style="edgeStyle=orthogonalEdgeStyle;rounded=0;orthogonalLoop=1;jettySize=auto;html=1;" edge="1" parent="WIyWlLk6GJQsqaUBKTNV-1" source="WSzhSvZmGiSPIvQ9xHni-7" target="WSzhSvZmGiSPIvQ9xHni-4">
          <mxGeometry relative="1" as="geometry" />
        </mxCell>
        <mxCell id="WSzhSvZmGiSPIvQ9xHni-10" value="开启" style="edgeLabel;html=1;align=center;verticalAlign=middle;resizable=0;points=[];" vertex="1" connectable="0" parent="WSzhSvZmGiSPIvQ9xHni-9">
          <mxGeometry y="2" relative="1" as="geometry">
            <mxPoint as="offset" />
          </mxGeometry>
        </mxCell>
        <mxCell id="WSzhSvZmGiSPIvQ9xHni-28" value="" style="edgeStyle=orthogonalEdgeStyle;rounded=0;orthogonalLoop=1;jettySize=auto;html=1;" edge="1" parent="WIyWlLk6GJQsqaUBKTNV-1" source="WSzhSvZmGiSPIvQ9xHni-7" target="WSzhSvZmGiSPIvQ9xHni-27">
          <mxGeometry relative="1" as="geometry" />
        </mxCell>
        <mxCell id="WSzhSvZmGiSPIvQ9xHni-7" value="进行正常路由操作" style="whiteSpace=wrap;html=1;rounded=1;" vertex="1" parent="WIyWlLk6GJQsqaUBKTNV-1">
          <mxGeometry x="360" y="370" width="120" height="60" as="geometry" />
        </mxCell>
        <mxCell id="WSzhSvZmGiSPIvQ9xHni-11" value="查询酒店公共路由配置" style="rounded=1;whiteSpace=wrap;html=1;" vertex="1" parent="WIyWlLk6GJQsqaUBKTNV-1">
          <mxGeometry x="360" y="140" width="120" height="60" as="geometry" />
        </mxCell>
        <mxCell id="WSzhSvZmGiSPIvQ9xHni-16" value="" style="edgeStyle=orthogonalEdgeStyle;rounded=0;orthogonalLoop=1;jettySize=auto;html=1;" edge="1" parent="WIyWlLk6GJQsqaUBKTNV-1" source="WSzhSvZmGiSPIvQ9xHni-12" target="WSzhSvZmGiSPIvQ9xHni-15">
          <mxGeometry relative="1" as="geometry" />
        </mxCell>
        <mxCell id="WSzhSvZmGiSPIvQ9xHni-12" value="查询酒店是否配置过自有路由&lt;br&gt;条件：酒店Id，商户号不是店直达" style="whiteSpace=wrap;html=1;rounded=1;" vertex="1" parent="WIyWlLk6GJQsqaUBKTNV-1">
          <mxGeometry x="520" y="260" width="120" height="60" as="geometry" />
        </mxCell>
        <mxCell id="WSzhSvZmGiSPIvQ9xHni-19" style="edgeStyle=orthogonalEdgeStyle;rounded=0;orthogonalLoop=1;jettySize=auto;html=1;exitX=0;exitY=0.5;exitDx=0;exitDy=0;entryX=1;entryY=0.5;entryDx=0;entryDy=0;" edge="1" parent="WIyWlLk6GJQsqaUBKTNV-1" source="WSzhSvZmGiSPIvQ9xHni-15" target="WSzhSvZmGiSPIvQ9xHni-7">
          <mxGeometry relative="1" as="geometry" />
        </mxCell>
        <mxCell id="WSzhSvZmGiSPIvQ9xHni-20" value="存在" style="edgeLabel;html=1;align=center;verticalAlign=middle;resizable=0;points=[];" vertex="1" connectable="0" parent="WSzhSvZmGiSPIvQ9xHni-19">
          <mxGeometry y="3" relative="1" as="geometry">
            <mxPoint as="offset" />
          </mxGeometry>
        </mxCell>
        <mxCell id="WSzhSvZmGiSPIvQ9xHni-25" value="" style="edgeStyle=orthogonalEdgeStyle;rounded=0;orthogonalLoop=1;jettySize=auto;html=1;" edge="1" parent="WIyWlLk6GJQsqaUBKTNV-1" source="WSzhSvZmGiSPIvQ9xHni-15" target="WSzhSvZmGiSPIvQ9xHni-24">
          <mxGeometry relative="1" as="geometry" />
        </mxCell>
        <mxCell id="WSzhSvZmGiSPIvQ9xHni-26" value="不存在" style="edgeLabel;html=1;align=center;verticalAlign=middle;resizable=0;points=[];" vertex="1" connectable="0" parent="WSzhSvZmGiSPIvQ9xHni-25">
          <mxGeometry x="-0.4" y="1" relative="1" as="geometry">
            <mxPoint as="offset" />
          </mxGeometry>
        </mxCell>
        <mxCell id="WSzhSvZmGiSPIvQ9xHni-15" value="是否存在" style="rhombus;whiteSpace=wrap;html=1;rounded=1;" vertex="1" parent="WIyWlLk6GJQsqaUBKTNV-1">
          <mxGeometry x="540" y="360" width="80" height="80" as="geometry" />
        </mxCell>
        <mxCell id="WSzhSvZmGiSPIvQ9xHni-29" style="edgeStyle=orthogonalEdgeStyle;rounded=0;orthogonalLoop=1;jettySize=auto;html=1;exitX=0.5;exitY=1;exitDx=0;exitDy=0;entryX=0.5;entryY=0;entryDx=0;entryDy=0;" edge="1" parent="WIyWlLk6GJQsqaUBKTNV-1" source="WSzhSvZmGiSPIvQ9xHni-24" target="WSzhSvZmGiSPIvQ9xHni-27">
          <mxGeometry relative="1" as="geometry" />
        </mxCell>
        <mxCell id="WSzhSvZmGiSPIvQ9xHni-24" value="不进行店直达路由" style="whiteSpace=wrap;html=1;rounded=1;" vertex="1" parent="WIyWlLk6GJQsqaUBKTNV-1">
          <mxGeometry x="520" y="480" width="120" height="60" as="geometry" />
        </mxCell>
        <mxCell id="WSzhSvZmGiSPIvQ9xHni-27" value="结束" style="whiteSpace=wrap;html=1;rounded=1;" vertex="1" parent="WIyWlLk6GJQsqaUBKTNV-1">
          <mxGeometry x="360" y="620" width="120" height="60" as="geometry" />
        </mxCell>
      </root>
    </mxGraphModel>
  </diagram>
</mxfile>
